<svg width="276" height="16" viewBox="0 0 276 16" fill="none" xmlns="http://www.w3.org/2000/svg">
<path d="M6.55775 12.048C5.51242 12.048 4.55775 11.7973 3.69375 11.296C2.84042 10.7947 2.16308 10.112 1.66175 9.248C1.17108 8.384 0.92575 7.43467 0.92575 6.4C0.92575 5.36533 1.17108 4.416 1.66175 3.552C2.16308 2.688 2.84575 2.00533 3.70975 1.504C4.57375 1.00267 5.53375 0.752 6.58975 0.752C7.64575 0.752 8.60042 0.997333 9.45375 1.488C10.3178 1.97867 10.9951 2.656 11.4858 3.52C11.9764 4.37333 12.2218 5.32267 12.2218 6.368C12.2218 7.41333 11.9711 8.37333 11.4698 9.248C10.9684 10.112 10.2858 10.7947 9.42175 11.296C8.55775 11.7973 7.60308 12.048 6.55775 12.048ZM6.55775 11.456C7.49642 11.456 8.34975 11.232 9.11775 10.784C9.88575 10.3253 10.4938 9.712 10.9418 8.944C11.3898 8.16533 11.6138 7.30667 11.6138 6.368C11.6138 5.42933 11.3951 4.58133 10.9578 3.824C10.5204 3.056 9.91775 2.45333 9.14975 2.016C8.39242 1.568 7.53908 1.344 6.58975 1.344C5.64042 1.344 4.77642 1.568 3.99775 2.016C3.22975 2.464 2.62175 3.07733 2.17375 3.856C1.73642 4.624 1.51775 5.472 1.51775 6.4C1.51775 7.328 1.73642 8.18133 2.17375 8.96C2.62175 9.728 3.22975 10.336 3.99775 10.784C4.76575 11.232 5.61908 11.456 6.55775 11.456ZM6.70175 9.728C6.07242 9.728 5.50175 9.58933 4.98975 9.312C4.48842 9.024 4.09375 8.62933 3.80575 8.128C3.51775 7.616 3.37375 7.04 3.37375 6.4C3.37375 5.76 3.51775 5.18933 3.80575 4.688C4.09375 4.176 4.48842 3.78133 4.98975 3.504C5.50175 3.216 6.07242 3.072 6.70175 3.072C7.24575 3.072 7.73642 3.184 8.17375 3.408C8.62175 3.62133 8.97908 3.92 9.24575 4.304L8.55775 4.816C8.33375 4.50667 8.06175 4.27733 7.74175 4.128C7.42175 3.97867 7.06975 3.904 6.68575 3.904C5.99242 3.904 5.41642 4.13333 4.95775 4.592C4.50975 5.05067 4.28575 5.65333 4.28575 6.4C4.28575 7.14667 4.50975 7.74933 4.95775 8.208C5.41642 8.66667 5.99242 8.896 6.68575 8.896C7.06975 8.896 7.42175 8.82133 7.74175 8.672C8.06175 8.52267 8.33375 8.29333 8.55775 7.984L9.24575 8.48C8.97908 8.87467 8.62175 9.184 8.17375 9.408C7.73642 9.62133 7.24575 9.728 6.70175 9.728ZM25.6988 10.976V12H17.8428V11.184L22.4988 6.624C23.0854 6.048 23.4801 5.552 23.6828 5.136C23.8961 4.70933 24.0028 4.28267 24.0028 3.856C24.0028 3.19467 23.7734 2.68267 23.3148 2.32C22.8668 1.94667 22.2214 1.76 21.3788 1.76C20.0668 1.76 19.0481 2.176 18.3228 3.008L17.5068 2.304C17.9441 1.792 18.4988 1.39733 19.1708 1.12C19.8534 0.842666 20.6214 0.704 21.4748 0.704C22.6161 0.704 23.5174 0.976 24.1788 1.52C24.8508 2.05333 25.1868 2.78933 25.1868 3.728C25.1868 4.304 25.0588 4.85867 24.8028 5.392C24.5468 5.92533 24.0614 6.53867 23.3468 7.232L19.5388 10.976H25.6988ZM31.546 12.096C30.682 12.096 29.9087 11.8667 29.226 11.408C28.554 10.9493 28.026 10.2933 27.642 9.44C27.2687 8.576 27.082 7.56267 27.082 6.4C27.082 5.23733 27.2687 4.22933 27.642 3.376C28.026 2.512 28.554 1.85067 29.226 1.392C29.9087 0.933333 30.682 0.704 31.546 0.704C32.41 0.704 33.178 0.933333 33.85 1.392C34.5327 1.85067 35.066 2.512 35.45 3.376C35.834 4.22933 36.026 5.23733 36.026 6.4C36.026 7.56267 35.834 8.576 35.45 9.44C35.066 10.2933 34.5327 10.9493 33.85 11.408C33.178 11.8667 32.41 12.096 31.546 12.096ZM31.546 11.04C32.1967 11.04 32.7673 10.8587 33.258 10.496C33.7593 10.1333 34.1487 9.60533 34.426 8.912C34.7033 8.21867 34.842 7.38133 34.842 6.4C34.842 5.41867 34.7033 4.58133 34.426 3.888C34.1487 3.19467 33.7593 2.66667 33.258 2.304C32.7673 1.94133 32.1967 1.76 31.546 1.76C30.8953 1.76 30.3193 1.94133 29.818 2.304C29.3273 2.66667 28.9433 3.19467 28.666 3.888C28.3887 4.58133 28.25 5.41867 28.25 6.4C28.25 7.38133 28.3887 8.21867 28.666 8.912C28.9433 9.60533 29.3273 10.1333 29.818 10.496C30.3193 10.8587 30.8953 11.04 31.546 11.04ZM45.2925 10.976V12H37.4365V11.184L42.0925 6.624C42.6792 6.048 43.0738 5.552 43.2765 5.136C43.4898 4.70933 43.5965 4.28267 43.5965 3.856C43.5965 3.19467 43.3672 2.68267 42.9085 2.32C42.4605 1.94667 41.8152 1.76 40.9725 1.76C39.6605 1.76 38.6418 2.176 37.9165 3.008L37.1005 2.304C37.5378 1.792 38.0925 1.39733 38.7645 1.12C39.4472 0.842666 40.2152 0.704 41.0685 0.704C42.2098 0.704 43.1112 0.976 43.7725 1.52C44.4445 2.05333 44.7805 2.78933 44.7805 3.728C44.7805 4.304 44.6525 4.85867 44.3965 5.392C44.1405 5.92533 43.6552 6.53867 42.9405 7.232L39.1325 10.976H45.2925ZM49.8423 0.799999V12H48.6903V1.824H46.0503V0.799999H49.8423ZM67.059 0.799999V12H65.891V6.832H58.883V12H57.699V0.799999H58.883V5.792H65.891V0.799999H67.059ZM70.7146 0.799999H71.8986V10.976H78.1706V12H70.7146V0.799999ZM88.0565 10.976V12H80.1365V0.799999H87.8165V1.824H81.3205V5.808H87.1125V6.816H81.3205V10.976H88.0565ZM98.6651 6.4H99.8011V10.672C99.2785 11.1307 98.6598 11.4827 97.9451 11.728C97.2305 11.9733 96.4785 12.096 95.6891 12.096C94.5691 12.096 93.5611 11.8507 92.6651 11.36C91.7691 10.8693 91.0651 10.192 90.5531 9.328C90.0411 8.45333 89.7851 7.47733 89.7851 6.4C89.7851 5.32267 90.0411 4.352 90.5531 3.488C91.0651 2.61333 91.7691 1.93067 92.6651 1.44C93.5611 0.949333 94.5745 0.704 95.7051 0.704C96.5585 0.704 97.3425 0.842666 98.0571 1.12C98.7718 1.38667 99.3745 1.78667 99.8651 2.32L99.1291 3.072C98.2438 2.19733 97.1185 1.76 95.7531 1.76C94.8465 1.76 94.0251 1.96267 93.2891 2.368C92.5638 2.76267 91.9931 3.31733 91.5771 4.032C91.1611 4.736 90.9531 5.52533 90.9531 6.4C90.9531 7.27467 91.1611 8.064 91.5771 8.768C91.9931 9.472 92.5638 10.0267 93.2891 10.432C94.0145 10.8373 94.8305 11.04 95.7371 11.04C96.8891 11.04 97.8651 10.752 98.6651 10.176V6.4ZM110.176 9.008H103.936L102.592 12H101.36L106.48 0.799999H107.648L112.768 12H111.52L110.176 9.008ZM109.744 8.048L107.056 2.032L104.368 8.048H109.744ZM114.621 0.799999H115.805V10.976H122.077V12H114.621V0.799999ZM128.23 0.799999H129.414V10.976H135.686V12H128.23V0.799999ZM140.387 3.52C141.486 3.52 142.329 3.79733 142.915 4.352C143.502 4.896 143.795 5.70667 143.795 6.784V12H142.707V10.688C142.451 11.1253 142.073 11.4667 141.571 11.712C141.081 11.9573 140.494 12.08 139.811 12.08C138.873 12.08 138.126 11.856 137.571 11.408C137.017 10.96 136.739 10.368 136.739 9.632C136.739 8.91733 136.995 8.34133 137.507 7.904C138.03 7.46667 138.857 7.248 139.987 7.248H142.659V6.736C142.659 6.01067 142.457 5.46133 142.051 5.088C141.646 4.704 141.054 4.512 140.275 4.512C139.742 4.512 139.23 4.60267 138.739 4.784C138.249 4.95467 137.827 5.19467 137.475 5.504L136.963 4.656C137.39 4.29333 137.902 4.016 138.499 3.824C139.097 3.62133 139.726 3.52 140.387 3.52ZM139.987 11.184C140.627 11.184 141.177 11.04 141.635 10.752C142.094 10.4533 142.435 10.0267 142.659 9.472V8.096H140.019C138.579 8.096 137.859 8.59733 137.859 9.6C137.859 10.0907 138.046 10.48 138.419 10.768C138.793 11.0453 139.315 11.184 139.987 11.184ZM159.077 3.584L155.893 12H154.821L152.165 5.104L149.509 12H148.437L145.269 3.584H146.357L148.997 10.736L151.701 3.584H152.677L155.365 10.736L158.037 3.584H159.077ZM168.463 12.08C167.631 12.08 166.884 11.8987 166.223 11.536C165.572 11.1733 165.06 10.6667 164.687 10.016C164.313 9.35467 164.127 8.61333 164.127 7.792C164.127 6.97067 164.313 6.23467 164.687 5.584C165.06 4.93333 165.572 4.42667 166.223 4.064C166.884 3.70133 167.631 3.52 168.463 3.52C169.188 3.52 169.833 3.664 170.399 3.952C170.975 4.22933 171.428 4.64 171.759 5.184L170.911 5.76C170.633 5.344 170.281 5.03467 169.855 4.832C169.428 4.61867 168.964 4.512 168.463 4.512C167.855 4.512 167.305 4.65067 166.815 4.928C166.335 5.19467 165.956 5.57867 165.679 6.08C165.412 6.58133 165.279 7.152 165.279 7.792C165.279 8.44267 165.412 9.01867 165.679 9.52C165.956 10.0107 166.335 10.3947 166.815 10.672C167.305 10.9387 167.855 11.072 168.463 11.072C168.964 11.072 169.428 10.9707 169.855 10.768C170.281 10.5653 170.633 10.256 170.911 9.84L171.759 10.416C171.428 10.96 170.975 11.376 170.399 11.664C169.823 11.9413 169.177 12.08 168.463 12.08ZM177.29 12.08C176.479 12.08 175.748 11.8987 175.098 11.536C174.447 11.1627 173.935 10.6507 173.562 10C173.188 9.34933 173.002 8.61333 173.002 7.792C173.002 6.97067 173.188 6.23467 173.562 5.584C173.935 4.93333 174.447 4.42667 175.098 4.064C175.748 3.70133 176.479 3.52 177.29 3.52C178.1 3.52 178.831 3.70133 179.482 4.064C180.132 4.42667 180.639 4.93333 181.002 5.584C181.375 6.23467 181.562 6.97067 181.562 7.792C181.562 8.61333 181.375 9.34933 181.002 10C180.639 10.6507 180.132 11.1627 179.482 11.536C178.831 11.8987 178.1 12.08 177.29 12.08ZM177.29 11.072C177.887 11.072 178.42 10.9387 178.89 10.672C179.37 10.3947 179.743 10.0053 180.01 9.504C180.276 9.00267 180.41 8.432 180.41 7.792C180.41 7.152 180.276 6.58133 180.01 6.08C179.743 5.57867 179.37 5.19467 178.89 4.928C178.42 4.65067 177.887 4.512 177.29 4.512C176.692 4.512 176.154 4.65067 175.674 4.928C175.204 5.19467 174.831 5.57867 174.554 6.08C174.287 6.58133 174.154 7.152 174.154 7.792C174.154 8.432 174.287 9.00267 174.554 9.504C174.831 10.0053 175.204 10.3947 175.674 10.672C176.154 10.9387 176.692 11.072 177.29 11.072ZM194.377 3.52C195.433 3.52 196.26 3.824 196.857 4.432C197.465 5.04 197.769 5.936 197.769 7.12V12H196.633V7.232C196.633 6.35733 196.42 5.69067 195.993 5.232C195.577 4.77333 194.985 4.544 194.217 4.544C193.342 4.544 192.654 4.816 192.153 5.36C191.652 5.89333 191.401 6.63467 191.401 7.584V12H190.265V7.232C190.265 6.35733 190.052 5.69067 189.625 5.232C189.209 4.77333 188.612 4.544 187.833 4.544C186.969 4.544 186.281 4.816 185.769 5.36C185.268 5.89333 185.017 6.63467 185.017 7.584V12H183.881V3.584H184.969V5.12C185.268 4.608 185.684 4.21333 186.217 3.936C186.75 3.65867 187.364 3.52 188.057 3.52C188.761 3.52 189.369 3.66933 189.881 3.968C190.404 4.26667 190.793 4.70933 191.049 5.296C191.358 4.74133 191.801 4.30933 192.377 4C192.964 3.68 193.63 3.52 194.377 3.52ZM205.186 3.52C205.975 3.52 206.69 3.70133 207.33 4.064C207.97 4.416 208.471 4.91733 208.834 5.568C209.196 6.21867 209.378 6.96 209.378 7.792C209.378 8.63467 209.196 9.38133 208.834 10.032C208.471 10.6827 207.97 11.1893 207.33 11.552C206.7 11.904 205.986 12.08 205.186 12.08C204.503 12.08 203.884 11.9413 203.33 11.664C202.786 11.376 202.338 10.96 201.986 10.416V15.104H200.85V3.584H201.938V5.248C202.279 4.69333 202.727 4.26667 203.282 3.968C203.847 3.66933 204.482 3.52 205.186 3.52ZM205.106 11.072C205.692 11.072 206.226 10.9387 206.706 10.672C207.186 10.3947 207.559 10.0053 207.826 9.504C208.103 9.00267 208.242 8.432 208.242 7.792C208.242 7.152 208.103 6.58667 207.826 6.096C207.559 5.59467 207.186 5.20533 206.706 4.928C206.226 4.65067 205.692 4.512 205.106 4.512C204.508 4.512 203.97 4.65067 203.49 4.928C203.02 5.20533 202.647 5.59467 202.37 6.096C202.103 6.58667 201.97 7.152 201.97 7.792C201.97 8.432 202.103 9.00267 202.37 9.504C202.647 10.0053 203.02 10.3947 203.49 10.672C203.97 10.9387 204.508 11.072 205.106 11.072ZM214.591 3.52C215.689 3.52 216.532 3.79733 217.119 4.352C217.705 4.896 217.999 5.70667 217.999 6.784V12H216.911V10.688C216.655 11.1253 216.276 11.4667 215.775 11.712C215.284 11.9573 214.697 12.08 214.015 12.08C213.076 12.08 212.329 11.856 211.775 11.408C211.22 10.96 210.943 10.368 210.943 9.632C210.943 8.91733 211.199 8.34133 211.711 7.904C212.233 7.46667 213.06 7.248 214.191 7.248H216.863V6.736C216.863 6.01067 216.66 5.46133 216.255 5.088C215.849 4.704 215.257 4.512 214.479 4.512C213.945 4.512 213.433 4.60267 212.943 4.784C212.452 4.95467 212.031 5.19467 211.679 5.504L211.167 4.656C211.593 4.29333 212.105 4.016 212.703 3.824C213.3 3.62133 213.929 3.52 214.591 3.52ZM214.191 11.184C214.831 11.184 215.38 11.04 215.839 10.752C216.297 10.4533 216.639 10.0267 216.863 9.472V8.096H214.223C212.783 8.096 212.062 8.59733 212.062 9.6C212.062 10.0907 212.249 10.48 212.623 10.768C212.996 11.0453 213.519 11.184 214.191 11.184ZM225.372 3.52C226.428 3.52 227.265 3.82933 227.884 4.448C228.513 5.056 228.828 5.94667 228.828 7.12V12H227.692V7.232C227.692 6.35733 227.473 5.69067 227.036 5.232C226.599 4.77333 225.975 4.544 225.164 4.544C224.257 4.544 223.537 4.816 223.004 5.36C222.481 5.89333 222.22 6.63467 222.22 7.584V12H221.084V3.584H222.172V5.136C222.481 4.624 222.908 4.22933 223.452 3.952C224.007 3.664 224.647 3.52 225.372 3.52ZM238.828 3.584L234.62 13.008C234.279 13.7973 233.884 14.3573 233.436 14.688C232.988 15.0187 232.449 15.184 231.82 15.184C231.415 15.184 231.036 15.12 230.684 14.992C230.332 14.864 230.028 14.672 229.772 14.416L230.3 13.568C230.727 13.9947 231.239 14.208 231.836 14.208C232.22 14.208 232.545 14.1013 232.812 13.888C233.089 13.6747 233.345 13.312 233.58 12.8L233.948 11.984L230.188 3.584H231.372L234.54 10.736L237.708 3.584H238.828ZM240.009 10.336C240.254 10.336 240.457 10.4213 240.617 10.592C240.777 10.752 240.857 10.9547 240.857 11.2C240.857 11.328 240.836 11.4667 240.793 11.616C240.761 11.7653 240.708 11.936 240.633 12.128L239.961 14.336H239.193L239.737 12.016C239.566 11.9627 239.428 11.8667 239.321 11.728C239.214 11.5787 239.161 11.4027 239.161 11.2C239.161 10.9547 239.241 10.752 239.401 10.592C239.561 10.4213 239.764 10.336 240.009 10.336ZM247.699 0.799999H248.883V10.976H255.155V12H247.699V0.799999ZM257.121 0.799999H258.305V10.976H264.577V12H257.121V0.799999ZM271.188 12.096C270.079 12.096 269.076 11.8507 268.18 11.36C267.295 10.8693 266.596 10.192 266.084 9.328C265.583 8.45333 265.332 7.47733 265.332 6.4C265.332 5.32267 265.583 4.352 266.084 3.488C266.596 2.61333 267.3 1.93067 268.196 1.44C269.092 0.949333 270.095 0.704 271.204 0.704C272.036 0.704 272.804 0.842666 273.508 1.12C274.212 1.39733 274.809 1.80267 275.3 2.336L274.548 3.088C273.673 2.20267 272.569 1.76 271.236 1.76C270.351 1.76 269.545 1.96267 268.82 2.368C268.095 2.77333 267.524 3.328 267.108 4.032C266.703 4.736 266.5 5.52533 266.5 6.4C266.5 7.27467 266.703 8.064 267.108 8.768C267.524 9.472 268.095 10.0267 268.82 10.432C269.545 10.8373 270.351 11.04 271.236 11.04C272.58 11.04 273.684 10.592 274.548 9.696L275.3 10.448C274.809 10.9813 274.207 11.392 273.492 11.68C272.788 11.9573 272.02 12.096 271.188 12.096Z" fill="#B3B3BA"/>
</svg>
